<svg width="170" height="61" viewBox="0 0 170 61" fill="none" xmlns="http://www.w3.org/2000/svg">
<path d="M12.955 47.852H11.791V34.352C11.791 25.044 16.92 19.917 26.234 19.917H39.982V30.517C39.982 40.564 32.682 47.856 22.631 47.856L12.955 47.852ZM22.048 43.794C23.8719 43.8046 25.6799 43.4533 27.3672 42.7605C29.0545 42.0677 30.5876 41.0472 31.8778 39.7579C33.168 38.4686 34.1897 36.9362 34.8837 35.2494C35.5777 33.5626 35.9303 31.755 35.921 29.931V24.631H26.821C20.221 24.631 16.853 27.674 16.538 33.931C18.861 31.886 22.038 30.851 26.019 30.851H31.032C31.1084 31.2977 31.1355 31.7514 31.113 32.204C31.1892 33.3878 30.8869 34.5652 30.25 35.566H26.6C20.8 35.566 17.682 38.26 17.092 43.796L22.048 43.794ZM6.9 47.843H4V29.921C4 29.881 4 29.84 4 29.8V29.339C4.00688 24.7404 5.83752 20.3324 9.09032 17.0818C12.3431 13.8313 16.7524 12.0037 21.351 12L39.867 12V16.059H21.934C18.2574 16.0616 14.7319 17.5226 12.1311 20.1213C9.53031 22.7201 8.06656 26.2444 8.061 29.921V47.843H6.9Z" fill="#B9B9B9"/>
<path d="M60.523 22.3821H52.223L52.491 22.6381V25.4381L52.223 25.7111L59.706 25.7281V28.3071H52.223L52.491 28.5801V33.6181H49.645V19.7861H60.523V22.3821Z" fill="#B9B9B9"/>
<path d="M67.309 33.7901C63.559 33.7901 61.701 31.3651 61.701 28.2391C61.701 25.1131 63.559 22.6891 67.292 22.6891C71.059 22.6891 72.917 25.0971 72.917 28.2391C72.9701 28.9866 72.8609 29.7368 72.597 30.4382C72.3332 31.1396 71.9208 31.7757 71.3882 32.3029C70.8556 32.8301 70.2153 33.2359 69.5113 33.4926C68.8072 33.7493 68.056 33.8508 67.309 33.7901ZM67.309 25.1481C65.334 25.1481 64.497 26.3771 64.497 28.2391C64.497 30.0841 65.367 31.3471 67.309 31.3471C69.268 31.3471 70.121 30.0831 70.121 28.2391C70.121 26.3951 69.264 25.1481 67.309 25.1481Z" fill="#B9B9B9"/>
<path d="M79.649 33.8061C77.7146 33.8089 75.85 33.0835 74.426 31.7741L76.217 29.9291C76.6512 30.3932 77.1742 30.7651 77.7551 31.0228C78.3359 31.2805 78.9627 31.4187 79.598 31.4291C81.205 31.4291 81.674 30.9161 81.674 30.5241C81.674 30.1831 81.523 29.9091 80.301 29.6021C80.067 29.5511 78.644 29.1581 78.41 29.1071C76.602 28.6451 74.744 27.8941 74.744 25.9301C74.744 24.0681 76.485 22.7021 79.481 22.7021C80.3511 22.663 81.2199 22.8018 82.0344 23.1101C82.8489 23.4184 83.592 23.8897 84.218 24.4951L82.477 26.2541C81.6804 25.476 80.6106 25.0409 79.497 25.0421C77.923 25.0421 77.555 25.5881 77.555 25.8951C77.555 26.3391 78.124 26.5101 79.413 26.8341C79.631 26.8861 80.869 27.2271 81.104 27.2951C83.33 27.8581 84.485 28.7811 84.485 30.4031C84.486 32.2351 82.913 33.8061 79.649 33.8061Z" fill="#B9B9B9"/>
<path d="M91.218 33.8061C89.2836 33.8089 87.419 33.0835 85.995 31.7741L87.786 29.9291C88.2201 30.3932 88.7432 30.7651 89.3241 31.0228C89.9049 31.2805 90.5317 31.4187 91.167 31.4291C92.774 31.4291 93.243 30.9161 93.243 30.5241C93.243 30.1831 93.092 29.9091 91.87 29.6021C91.636 29.5511 90.213 29.1581 89.978 29.1071C88.17 28.6451 86.312 27.8941 86.312 25.9301C86.312 24.0681 88.053 22.7021 91.049 22.7021C91.919 22.663 92.7879 22.8018 93.6024 23.1101C94.417 23.4184 95.16 23.8897 95.786 24.4951L94.045 26.2541C93.2487 25.4761 92.1793 25.041 91.066 25.0421C89.492 25.0421 89.124 25.5881 89.124 25.8951C89.124 26.3391 89.693 26.5101 90.982 26.8341C91.199 26.8861 92.438 27.2271 92.673 27.2951C94.899 27.8581 96.054 28.7811 96.054 30.4031C96.056 32.2351 94.482 33.8061 91.218 33.8061Z" fill="#B9B9B9"/>
<path d="M99.522 22.1421C99.2083 22.1555 98.8978 22.0747 98.6304 21.9101C98.363 21.7455 98.151 21.5046 98.0217 21.2185C97.8923 20.9324 97.8516 20.6141 97.9046 20.3047C97.9577 19.9952 98.1022 19.7087 98.3195 19.482C98.5368 19.2553 98.8169 19.0989 99.1239 19.0328C99.4308 18.9667 99.7505 18.994 100.042 19.1111C100.333 19.2283 100.583 19.4299 100.759 19.6901C100.934 19.9503 101.028 20.2571 101.028 20.5711C101.04 20.7751 101.01 20.9793 100.939 21.171C100.869 21.3627 100.759 21.5378 100.618 21.6853C100.476 21.8328 100.306 21.9494 100.118 22.0281C99.929 22.1067 99.7263 22.1455 99.522 22.1421ZM100.912 33.6191H98.112V22.8601H100.912V33.6191Z" fill="#B9B9B9"/>
<path d="M106.302 33.6201H103.502V19.2741H106.302V33.6201Z" fill="#B9B9B9"/>
<path d="M121.234 33.6191H119.509V31.8431H119.475C118.966 32.4712 118.319 32.9737 117.585 33.3113C116.85 33.649 116.048 33.8128 115.24 33.7901C110.888 33.7901 108.427 31.0901 108.427 26.8391C108.427 22.4671 110.971 19.6151 115.341 19.6151C116.336 19.5676 117.331 19.73 118.259 20.0918C119.188 20.4536 120.03 21.0067 120.731 21.7151L119.258 23.1841C118.782 22.6173 118.18 22.1705 117.499 21.8797C116.819 21.5888 116.079 21.4623 115.341 21.5101C112.041 21.5101 110.487 23.5261 110.487 26.8381C110.487 29.9981 111.993 31.8931 115.241 31.8931C115.784 31.9126 116.326 31.8214 116.832 31.6251C117.339 31.4288 117.801 31.1315 118.189 30.7513C118.577 30.3711 118.884 29.9159 119.091 29.4134C119.298 28.9109 119.401 28.3715 119.393 27.8281L119.593 27.6401H114.973V25.7401H121.234V33.6191Z" fill="#B9B9B9"/>
<path d="M129.769 24.7731H129.15C127.392 24.7561 126.036 25.7461 126.036 28.3091V33.6151H124.078V22.8611H126.036V24.5861H126.07C126.387 24.0076 126.859 23.5287 127.432 23.2031C128.006 22.8774 128.659 22.7178 129.318 22.7421H129.77L129.769 24.7731Z" fill="#B9B9B9"/>
<path d="M136.052 33.7901C132.57 33.7901 130.863 31.4161 130.863 28.2391C130.863 25.0621 132.588 22.6891 136.036 22.6891C139.518 22.6891 141.242 25.0291 141.242 28.2391C141.242 31.3991 139.484 33.7901 136.052 33.7901ZM136.052 24.4821C133.775 24.4821 132.821 26.0881 132.821 28.2391C132.821 30.3571 133.792 31.9961 136.052 31.9961C138.329 31.9961 139.283 30.3741 139.283 28.2391C139.283 26.1041 138.312 24.4821 136.052 24.4821Z" fill="#B9B9B9"/>
<path d="M152.961 33.6191H151.003V32.4581H150.969C150.565 32.8902 150.074 33.2321 149.529 33.4616C148.984 33.6911 148.396 33.8031 147.805 33.7901C144.725 33.7901 143.419 32.1331 143.419 29.5031V22.8601H145.378V29.4351C145.378 30.8861 145.796 31.9961 148.039 31.9961C148.423 32.0387 148.812 31.9973 149.179 31.875C149.545 31.7527 149.881 31.5523 150.163 31.2877C150.444 31.023 150.665 30.7003 150.81 30.342C150.955 29.9837 151.021 29.5982 151.002 29.2121V22.8591H152.96L152.961 33.6191Z" fill="#B9B9B9"/>
<path d="M160.982 33.7901C160.391 33.8201 159.8 33.7211 159.25 33.4999C158.701 33.2787 158.207 32.9406 157.801 32.5091H157.768V37.2091H155.809V22.8601H157.768V23.9701H157.801C158.209 23.5415 158.704 23.2053 159.252 22.9843C159.801 22.7633 160.391 22.6626 160.982 22.6891C164.33 22.6891 165.987 25.0461 165.987 28.2391C165.987 31.4501 164.363 33.7901 160.982 33.7901ZM160.832 24.4821C158.539 24.4821 157.632 26.1221 157.632 28.2731C157.632 30.4421 158.502 31.9961 160.832 31.9961C163.142 31.9961 164.032 30.4251 164.032 28.2731C164.032 26.1211 163.158 24.4821 160.831 24.4821H160.832Z" fill="#B9B9B9"/>
<path d="M53.159 37.0772L51.72 39.0902V40.5322H51.214V39.0902L49.771 37.0772H50.403L51.244 38.2882L51.462 38.6592H51.47L51.684 38.2842L52.533 37.0762L53.159 37.0772Z" fill="#B9B9B9"/>
<path d="M55.303 40.5752C55.0746 40.5885 54.8462 40.5514 54.6337 40.4666C54.4213 40.3818 54.2301 40.2514 54.0736 40.0845C53.9172 39.9177 53.7993 39.7185 53.7283 39.501C53.6574 39.2836 53.6351 39.0532 53.663 38.8262C53.6435 38.599 53.6715 38.3703 53.7451 38.1545C53.8187 37.9387 53.9363 37.7406 54.0905 37.5726C54.2447 37.4047 54.4321 37.2706 54.6408 37.1788C54.8495 37.0871 55.075 37.0398 55.303 37.0398C55.531 37.0398 55.7565 37.0871 55.9652 37.1788C56.1739 37.2706 56.3613 37.4047 56.5155 37.5726C56.6697 37.7406 56.7873 37.9387 56.8609 38.1545C56.9345 38.3703 56.9624 38.599 56.943 38.8262C56.9695 39.0529 56.9462 39.2827 56.8747 39.4995C56.8032 39.7164 56.6853 39.915 56.5291 40.0815C56.373 40.248 56.1824 40.3785 55.9706 40.4637C55.7588 40.549 55.531 40.587 55.303 40.5752ZM55.303 37.5082C54.503 37.5082 54.177 38.0882 54.177 38.8272C54.177 39.5482 54.503 40.1032 55.303 40.1032C56.103 40.1032 56.428 39.5492 56.428 38.8272C56.428 38.1052 56.11 37.5072 55.303 37.5072V37.5082Z" fill="#B9B9B9"/>
<path d="M60.798 38.9462C60.798 39.9962 60.325 40.5762 59.313 40.5762C58.301 40.5762 57.82 40.0042 57.82 38.9462V37.0772H58.32V38.9422C58.32 39.6712 58.58 40.1022 59.308 40.1022C60.036 40.1022 60.295 39.6712 60.295 38.9422V37.0772H60.795L60.798 38.9462Z" fill="#B9B9B9"/>
<path d="M64.858 40.5332H64.297L63.858 39.6202C63.7903 39.4647 63.6745 39.3351 63.5276 39.2505C63.3806 39.1659 63.2104 39.1307 63.042 39.1502H62.281L62.331 39.1982V40.5332H61.831V37.0772H63.366C63.5144 37.0582 63.6651 37.071 63.8082 37.1145C63.9513 37.158 64.0836 37.2314 64.1963 37.3297C64.309 37.4281 64.3996 37.5492 64.4621 37.6851C64.5246 37.821 64.5577 37.9686 64.559 38.1182C64.5557 38.3111 64.4928 38.4982 64.379 38.654C64.2651 38.8098 64.1058 38.9265 63.923 38.9882V38.9972C64.1002 39.0848 64.2415 39.2311 64.323 39.4112L64.858 40.5332ZM63.364 37.5512H62.281L62.331 37.6032V38.6232L62.281 38.6792H63.323C63.791 38.6792 64.042 38.4402 64.042 38.1202C64.042 37.7092 63.766 37.5502 63.364 37.5502V37.5512Z" fill="#B9B9B9"/>
<path d="M68.78 40.5332H67.14V37.0772H68.747C68.8824 37.0601 69.0199 37.0721 69.1502 37.1124C69.2806 37.1527 69.4008 37.2203 69.503 37.3108C69.6051 37.4013 69.6867 37.5126 69.7424 37.6371C69.7982 37.7617 69.8267 37.8967 69.826 38.0332C69.8341 38.1686 69.8052 38.3036 69.7425 38.4239C69.6798 38.5442 69.5856 38.6452 69.47 38.7162V38.7252C69.6278 38.7894 69.7613 38.902 69.8511 39.0468C69.941 39.1916 69.9826 39.3612 69.97 39.5312C69.975 40.1492 69.55 40.5332 68.78 40.5332ZM68.705 37.5512H67.592L67.642 37.6032V38.4692L67.592 38.5212H68.705C69.161 38.5212 69.311 38.3032 69.311 38.0302C69.311 37.7132 69.119 37.5502 68.705 37.5502V37.5512ZM68.78 38.9932H67.592L67.642 39.0452V40.0092L67.592 40.0612H68.78C69.28 40.0612 69.458 39.8692 69.458 39.5322C69.458 39.1952 69.261 38.9922 68.78 38.9922V38.9932Z" fill="#B9B9B9"/>
<path d="M73.79 38.9462C73.79 39.9962 73.317 40.5762 72.305 40.5762C71.293 40.5762 70.812 40.0042 70.812 38.9462V37.0772H71.312V38.9422C71.312 39.6712 71.571 40.1022 72.299 40.1022C73.027 40.1022 73.286 39.6712 73.286 38.9422V37.0772H73.786L73.79 38.9462Z" fill="#B9B9B9"/>
<path d="M76.17 40.5752C75.8901 40.5852 75.6111 40.5381 75.3499 40.4369C75.0888 40.3356 74.851 40.1823 74.651 39.9862L75.023 39.6192C75.1692 39.7714 75.3446 39.8926 75.5388 39.9754C75.733 40.0582 75.9419 40.101 76.153 40.1012C76.776 40.1012 77.053 39.8662 77.053 39.6012C77.053 39.4092 76.89 39.2092 76.434 39.0892C76.363 39.0682 75.886 38.9441 75.81 38.9231C75.195 38.7521 74.743 38.5232 74.743 37.9972C74.743 37.4972 75.187 37.0372 76.124 37.0372C76.3761 37.0294 76.6269 37.0748 76.8603 37.1702C77.0938 37.2656 77.3046 37.409 77.479 37.5911L77.111 37.9621C76.9925 37.8157 76.8418 37.6987 76.6705 37.6203C76.4993 37.5419 76.3122 37.5042 76.124 37.5102C75.496 37.5102 75.258 37.7491 75.258 37.9791C75.258 38.1921 75.467 38.3161 76.041 38.4791C76.112 38.4961 76.509 38.6072 76.589 38.6282C77.271 38.8032 77.568 39.1572 77.568 39.5802C77.57 40.0762 77.176 40.5752 76.17 40.5752Z" fill="#B9B9B9"/>
<path d="M78.973 40.5332H78.473V37.0772H78.973V40.5332Z" fill="#B9B9B9"/>
<path d="M82.927 40.5332H82.483L80.783 38.2982L80.549 37.9052H80.54V40.5332H80.04V37.0772H80.484L82.191 39.3172L82.417 39.7052H82.426V37.0772H82.926L82.927 40.5332Z" fill="#B9B9B9"/>
<path d="M86.569 40.5332H83.975V37.0772H86.569V37.5502H84.428L84.478 37.6022V38.5152L84.428 38.5712H86.369V39.0412H84.428L84.478 39.0922V40.0092L84.428 40.0612H86.57L86.569 40.5332Z" fill="#B9B9B9"/>
<path d="M88.884 40.5752C88.6041 40.5851 88.3251 40.538 88.064 40.4368C87.8028 40.3355 87.565 40.1822 87.365 39.9862L87.738 39.6192C87.8842 39.7715 88.0596 39.8927 88.2538 39.9755C88.448 40.0583 88.6569 40.1011 88.868 40.1012C89.491 40.1012 89.768 39.8662 89.768 39.6012C89.768 39.4092 89.605 39.2092 89.149 39.0892C89.078 39.0682 88.601 38.9441 88.526 38.9231C87.911 38.7521 87.459 38.5232 87.459 37.9972C87.459 37.4972 87.903 37.0372 88.839 37.0372C89.0911 37.0294 89.3419 37.0748 89.5754 37.1702C89.8088 37.2656 90.0195 37.409 90.194 37.5911L89.826 37.9621C89.7074 37.8157 89.5564 37.6986 89.385 37.6202C89.2136 37.5418 89.0264 37.5041 88.838 37.5102C88.211 37.5102 87.972 37.7491 87.972 37.9791C87.972 38.1921 88.181 38.3161 88.754 38.4791C88.825 38.4961 89.223 38.6072 89.302 38.6282C89.984 38.8032 90.281 39.1572 90.281 39.5802C90.285 40.0762 89.892 40.5752 88.884 40.5752Z" fill="#B9B9B9"/>
<path d="M92.517 40.5752C92.2371 40.5852 91.9581 40.5381 91.6969 40.4369C91.4358 40.3356 91.198 40.1823 90.998 39.9862L91.37 39.6192C91.5162 39.7714 91.6917 39.8926 91.8858 39.9754C92.08 40.0582 92.2889 40.101 92.5 40.1012C93.123 40.1012 93.4 39.8662 93.4 39.6012C93.4 39.4092 93.237 39.2092 92.781 39.0892C92.71 39.0682 92.233 38.9441 92.157 38.9231C91.542 38.7521 91.09 38.5232 91.09 37.9972C91.09 37.4972 91.534 37.0372 92.471 37.0372C92.7231 37.0294 92.9739 37.0748 93.2074 37.1702C93.4408 37.2656 93.6515 37.409 93.826 37.5911L93.458 37.9621C93.3395 37.8157 93.1888 37.6987 93.0175 37.6203C92.8463 37.5419 92.6592 37.5042 92.471 37.5102C91.843 37.5102 91.605 37.7491 91.605 37.9791C91.605 38.1921 91.814 38.3161 92.388 38.4791C92.459 38.4961 92.856 38.6072 92.936 38.6282C93.618 38.8032 93.915 39.1572 93.915 39.5802C93.918 40.0762 93.529 40.5752 92.517 40.5752Z" fill="#B9B9B9"/>
<path d="M98.983 37.5502H97.765L97.79 37.6022V40.5332H97.29V37.6022L97.319 37.5502H96.096V37.0772H98.983V37.5502Z" fill="#B9B9B9"/>
<path d="M102.607 40.5332H102.059L101.703 39.7332L101.728 39.6862H99.928L99.953 39.7332L99.597 40.5332H99.049L100.584 37.0772H101.073L102.607 40.5332ZM101.498 39.2102L101.448 39.1592L100.929 37.9862L100.829 37.6702H100.821L100.721 37.9812L100.198 39.1592L100.148 39.2102H101.498Z" fill="#B9B9B9"/>
<path d="M106.27 40.5322H105.839V40.0882H105.832C105.705 40.245 105.543 40.3705 105.36 40.4547C105.176 40.539 104.976 40.5799 104.774 40.5742C104.543 40.5928 104.311 40.5604 104.093 40.4792C103.876 40.398 103.68 40.2701 103.517 40.1045C103.355 39.9388 103.231 39.7395 103.155 39.5207C103.078 39.3018 103.051 39.0688 103.074 38.8382C103.05 38.6021 103.078 38.3637 103.155 38.1393C103.232 37.915 103.357 37.7101 103.521 37.5389C103.686 37.3677 103.885 37.2342 104.106 37.1477C104.327 37.0613 104.564 37.0239 104.801 37.0382C105.05 37.0263 105.298 37.067 105.53 37.1574C105.762 37.2479 105.973 37.3861 106.148 37.5632L105.78 37.9302C105.661 37.7885 105.511 37.6768 105.34 37.6042C105.17 37.5315 104.986 37.5 104.801 37.5122C103.977 37.5122 103.588 38.0122 103.588 38.8432C103.588 39.6322 103.964 40.1062 104.776 40.1062C104.912 40.1112 105.047 40.0886 105.174 40.0396C105.301 39.9906 105.416 39.9162 105.513 39.8212C105.61 39.7261 105.687 39.6122 105.738 39.4865C105.79 39.3609 105.815 39.226 105.813 39.0902L105.863 39.0442H104.709V38.5702H106.273L106.27 40.5322Z" fill="#B9B9B9"/>
<path d="M109.715 40.5332H107.315V37.0772H107.815V40.0082L107.765 40.0602H109.71L109.715 40.5332Z" fill="#B9B9B9"/>
<path d="M110.972 40.5332H110.472V37.0772H110.972V40.5332Z" fill="#B9B9B9"/>
<path d="M114.926 40.5332H114.482L112.782 38.2982L112.548 37.9052H112.539V40.5332H112.039V37.0772H112.482L114.189 39.3172L114.414 39.7052H114.423V37.0772H114.923L114.926 40.5332Z" fill="#B9B9B9"/>
<path d="M118.567 40.5332H115.974V37.0772H118.567V37.5502H116.425L116.475 37.6022V38.5152L116.425 38.5712H118.366V39.0412H116.425L116.475 39.0922V40.0092L116.425 40.0612H118.567V40.5332Z" fill="#B9B9B9"/>
<path d="M124.175 40.5322H123.745V40.0882H123.737C123.61 40.2451 123.448 40.3706 123.264 40.4549C123.081 40.5392 122.88 40.58 122.678 40.5742C122.447 40.5926 122.215 40.5601 121.998 40.4789C121.78 40.3976 121.584 40.2697 121.422 40.1041C121.259 39.9385 121.136 39.7392 121.059 39.5205C120.982 39.3017 120.955 39.0688 120.978 38.8382C120.954 38.602 120.981 38.3635 121.059 38.1391C121.136 37.9146 121.261 37.7097 121.426 37.5385C121.59 37.3673 121.79 37.2338 122.011 37.1474C122.232 37.061 122.469 37.0238 122.706 37.0382C122.955 37.0263 123.203 37.067 123.435 37.1574C123.667 37.2479 123.878 37.3861 124.053 37.5632L123.685 37.9302C123.566 37.7886 123.415 37.677 123.245 37.6044C123.075 37.5318 122.891 37.5002 122.706 37.5122C121.882 37.5122 121.493 38.0122 121.493 38.8432C121.493 39.6322 121.869 40.1062 122.681 40.1062C122.817 40.1112 122.952 40.0886 123.079 40.0396C123.206 39.9906 123.321 39.9162 123.418 39.8212C123.515 39.7261 123.592 39.6122 123.643 39.4865C123.695 39.3609 123.72 39.226 123.718 39.0902L123.768 39.0442H122.614V38.5702H124.178L124.175 40.5322Z" fill="#B9B9B9"/>
<path d="M126.717 40.5752C126.489 40.5885 126.26 40.5514 126.048 40.4666C125.835 40.3818 125.644 40.2514 125.488 40.0845C125.331 39.9177 125.213 39.7185 125.142 39.501C125.071 39.2836 125.049 39.0532 125.077 38.8262C125.058 38.599 125.086 38.3703 125.159 38.1545C125.233 37.9387 125.35 37.7406 125.504 37.5726C125.659 37.4047 125.846 37.2706 126.055 37.1788C126.264 37.0871 126.489 37.0398 126.717 37.0398C126.945 37.0398 127.17 37.0871 127.379 37.1788C127.588 37.2706 127.775 37.4047 127.93 37.5726C128.084 37.7406 128.201 37.9387 128.275 38.1545C128.348 38.3703 128.376 38.599 128.357 38.8262C128.383 39.0529 128.36 39.2827 128.289 39.4995C128.217 39.7164 128.099 39.915 127.943 40.0815C127.787 40.248 127.596 40.3785 127.385 40.4637C127.173 40.549 126.945 40.587 126.717 40.5752ZM126.717 37.5082C125.917 37.5082 125.592 38.0882 125.592 38.8272C125.592 39.5482 125.918 40.1032 126.717 40.1032C127.516 40.1032 127.842 39.5492 127.842 38.8272C127.842 38.1052 127.524 37.5072 126.717 37.5072V37.5082Z" fill="#B9B9B9"/>
<path d="M131.852 40.5332H129.259V37.0772H131.852V37.5502H129.71L129.76 37.6022V38.5152L129.71 38.5712H131.651V39.0412H129.71L129.76 39.0922V40.0092L129.71 40.0612H131.852V40.5332Z" fill="#B9B9B9"/>
<path d="M134.167 40.5752C133.887 40.585 133.608 40.5379 133.347 40.4367C133.087 40.3354 132.849 40.1821 132.649 39.9862L133.021 39.6192C133.167 39.7714 133.342 39.8926 133.536 39.9754C133.73 40.0582 133.939 40.101 134.15 40.1012C134.774 40.1012 135.05 39.8662 135.05 39.6012C135.05 39.4092 134.887 39.2092 134.431 39.0892C134.36 39.0682 133.883 38.9441 133.808 38.9231C133.193 38.7521 132.741 38.5232 132.741 37.9972C132.741 37.4972 133.184 37.0372 134.121 37.0372C134.373 37.0294 134.624 37.0748 134.857 37.1702C135.091 37.2656 135.302 37.409 135.476 37.5911L135.108 37.9621C134.989 37.8156 134.839 37.6985 134.667 37.6201C134.496 37.5417 134.308 37.504 134.12 37.5102C133.493 37.5102 133.254 37.7491 133.254 37.9791C133.254 38.1921 133.463 38.3161 134.036 38.4791C134.107 38.4961 134.505 38.6072 134.584 38.6282C135.266 38.8032 135.563 39.1572 135.563 39.5802C135.569 40.0762 135.175 40.5752 134.167 40.5752Z" fill="#B9B9B9"/>
<path d="M140.927 40.5332H140.427V39.0952L140.477 39.0442H138.494L138.544 39.0952V40.5332H138.044V37.0772H138.544V38.5192L138.494 38.5702H140.475L140.425 38.5192V37.0772H140.925L140.927 40.5332Z" fill="#B9B9B9"/>
<path d="M144.568 40.5332H141.974V37.0772H144.568V37.5502H142.426L142.476 37.6022V38.5152L142.426 38.5712H144.367V39.0412H142.426L142.476 39.0922V40.0092L142.426 40.0612H144.568V40.5332Z" fill="#B9B9B9"/>
<path d="M148.561 40.5332H148L147.561 39.6202C147.493 39.4646 147.378 39.3349 147.231 39.2503C147.084 39.1657 146.913 39.1306 146.745 39.1502H145.984L146.034 39.1982V40.5332H145.534V37.0772H147.069C147.217 37.0582 147.368 37.071 147.511 37.1145C147.654 37.158 147.786 37.2314 147.899 37.3298C148.012 37.4281 148.102 37.5493 148.165 37.6852C148.227 37.8211 148.26 37.9686 148.261 38.1182C148.258 38.3111 148.195 38.4984 148.081 38.6542C147.967 38.81 147.808 38.9266 147.625 38.9882V38.9972C147.802 39.0848 147.944 39.2311 148.025 39.4112L148.561 40.5332ZM147.067 37.5512H145.983L146.033 37.6032V38.6232L145.983 38.6792H147.025C147.494 38.6792 147.744 38.4402 147.744 38.1202C147.745 37.7092 147.469 37.5502 147.067 37.5502V37.5512Z" fill="#B9B9B9"/>
<path d="M151.846 40.5332H149.253V37.0772H151.846V37.5502H149.704L149.754 37.6022V38.5152L149.704 38.5712H151.645V39.0412H149.704L149.754 39.0922V40.0092L149.704 40.0612H151.846V40.5332Z" fill="#B9B9B9"/>
</svg>
